<?xml version="1.0" encoding="utf-8"?>
<!-- Generator: Adobe Illustrator 23.0.1, SVG Export Plug-In . SVG Version: 6.00 Build 0)  -->
<svg version="1.1" id="Calque_1" xmlns="http://www.w3.org/2000/svg" xmlns:xlink="http://www.w3.org/1999/xlink" x="0px" y="0px"
	 viewBox="0 0 600 400" style="enable-background:new 0 0 600 400;" xml:space="preserve">
<style type="text/css">
	.st0{fill:#8F3AED;}
	.st1{opacity:0.35;fill:url(#SVGID_1_);enable-background:new    ;}
	.st2{opacity:0.35;fill:url(#SVGID_2_);enable-background:new    ;}
	.st3{opacity:0.3;fill:#FFFFFF;enable-background:new    ;}
	.st4{opacity:0.5;fill:#FFFFFF;enable-background:new    ;}
	.st5{opacity:0.3;}
	.st6{fill:#FFFFFF;}
	.st7{opacity:0.2;fill:#5275A0;enable-background:new    ;}
	.st8{fill:#964BC6;}
	.st9{opacity:0.2238;fill:none;stroke:#5B0B60;stroke-width:0.7555;stroke-miterlimit:10;enable-background:new    ;}
	.st10{fill:none;stroke:#FFFFFF;stroke-width:0.7555;stroke-miterlimit:10;}
	.st11{fill:#FFA31D;}
	.st12{fill:#FFD630;}
	.st13{fill:#AEC1FF;}
	.st14{opacity:0.5;fill:#AEC1FF;enable-background:new    ;}
	.st15{opacity:0.5;}
	.st16{fill:none;stroke:#FFFFFF;stroke-width:0.2645;stroke-miterlimit:10;}
	.st17{fill:#F4F4F4;}
	.st18{fill:#F9921E;}
	.st19{opacity:0.86;fill:#FFFFFF;enable-background:new    ;}
	.st20{opacity:0.8;fill:#FFFFFF;enable-background:new    ;}
	.st21{opacity:0.86;}
	.st22{fill:#E1E8F9;}
	.st23{fill:#A1D7FF;}
	.st24{fill:#6BBFFF;}
	.st25{fill:#FCBE32;}
	.st26{fill:none;stroke:#A8A8A8;stroke-width:0.6647;stroke-miterlimit:10;}
	.st27{fill:none;stroke:#3B2F7C;stroke-width:0.6647;stroke-miterlimit:10;}
	.st28{fill:none;stroke:#3B2F7C;stroke-width:0.6647;stroke-linecap:round;stroke-linejoin:round;stroke-miterlimit:10;}
	.st29{opacity:0.23;}
	.st30{fill:#FFE1BD;}
	.st31{fill:#E8D7FF;}
	.st32{fill:#0A344C;}
	.st33{fill:#E8C5A0;}
	.st34{fill:#16405A;}
	.st35{fill:#103649;}
	.st36{fill:#EAEAEA;}
	.st37{fill:#3A3A3A;}
	.st38{opacity:0.29;fill:url(#SVGID_3_);enable-background:new    ;}
	.st39{fill:#EFCFAC;}
	.st40{fill:#2E95A0;}
	.st41{fill:#53CDD3;}
	.st42{fill:#FFC9A1;}
	.st43{fill:#EF9D18;}
	.st44{opacity:0.2;fill:#392F3D;enable-background:new    ;}
	.st45{opacity:0.29;fill:url(#SVGID_4_);enable-background:new    ;}
	.st46{fill:#FFB41D;}
</style>
<g>
	<path class="st0" d="M563.1,25.5c13.9,17.4,13.3,260.7,0,276s-116.5,4.5-154.5-25.2c-13.2-10.3-24.5-22.9-40.4-30.1
		c-34.8-15.8-84.2-2.6-112.6-25.8c-24.5-20.1-18-55.4-36.3-79.7c-7.9-10.6-18.6-19.6-30.3-27.3c-34.5-22.8-38.5-90-14.6-104.9
		C195.1-8.3,549.2,8.1,563.1,25.5z"/>
	
		<linearGradient id="SVGID_1_" gradientUnits="userSpaceOnUse" x1="204.1673" y1="254.3825" x2="597.5581" y2="254.3825" gradientTransform="matrix(1 0 0 -1 0 400)">
		<stop  offset="0" style="stop-color:#C15FA5"/>
		<stop  offset="1" style="stop-color:#F6AECE;stop-opacity:0"/>
	</linearGradient>
	<path class="st1" d="M223.9,8.5c-28.8,9.1-21.6,27.9-6.5,56.2s34.9,22,52,45s-1.6,79.7,19,100.3c26.1,26.1,58.1-1.3,91.6,3.4
		s71.1,65.3,113.4,73s101-2,102.9-20.2c1.9-18.2,3.7-220.7-13-244.7C566.7-2.4,252.7-0.6,223.9,8.5z"/>
	
		<linearGradient id="SVGID_2_" gradientUnits="userSpaceOnUse" x1="389.156" y1="312.1887" x2="598.2677" y2="312.1887" gradientTransform="matrix(1 0 0 -1 0 400)">
		<stop  offset="0" style="stop-color:#C15FA5"/>
		<stop  offset="1" style="stop-color:#F6AECE;stop-opacity:0"/>
	</linearGradient>
	<path class="st2" d="M395.9,8.5c-10.6,6.5-9.6,25.7,9.4,43.5s59.2-1,85,13.6c25.8,14.7-31.2,68.6,12.7,91.4s88.3,18.3,93.4-4.1
		c5.1-22.4,0-129.1-17.5-140.7C561.3,0.7,406.5,2,395.9,8.5z"/>
</g>
<g>
	<rect x="343.9" y="71.8" class="st3" width="176.1" height="134.9"/>
	<path class="st4" d="M402.6,158.2h-51.3c-1.8,0-3.3-1.5-3.3-3.3V81.2c0-1.8,1.5-3.3,3.3-3.3h51.3c1.8,0,3.3,1.5,3.3,3.3V155
		C405.8,156.8,404.4,158.2,402.6,158.2z"/>
	<g class="st5">
		<g>
			<path class="st6" d="M442.1,170.4l-30.8,0.1c-0.3,0-0.5-0.3-0.5-0.7l0,0c0-0.4,0.2-0.7,0.5-0.7l30.8-0.1c0.3,0,0.5,0.3,0.5,0.7
				l0,0C442.6,170,442.4,170.4,442.1,170.4z"/>
			<path class="st6" d="M442.1,167.2l-30.8,0.1c-0.3,0-0.5-0.3-0.5-0.7l0,0c0-0.4,0.2-0.7,0.5-0.7l30.8-0.1c0.3,0,0.5,0.3,0.5,0.7
				l0,0C442.6,166.8,442.4,167.2,442.1,167.2z"/>
			<path class="st6" d="M442.1,173.6l-30.8,0.1c-0.3,0-0.5-0.3-0.5-0.7l0,0c0-0.4,0.2-0.7,0.5-0.7l30.8-0.1c0.3,0,0.5,0.3,0.5,0.7
				l0,0C442.6,173.2,442.4,173.6,442.1,173.6z"/>
			<path class="st6" d="M442.1,176.8l-30.8,0.1c-0.3,0-0.5-0.3-0.5-0.7l0,0c0-0.4,0.2-0.7,0.5-0.7l30.8-0.1c0.3,0,0.5,0.3,0.5,0.7
				l0,0C442.6,176.4,442.4,176.8,442.1,176.8z"/>
			<path class="st6" d="M434.8,180l-23.5,0.1c-0.3,0-0.5-0.3-0.5-0.7l0,0c0-0.4,0.2-0.7,0.5-0.7l23.5-0.1c0.3,0,0.5,0.3,0.5,0.7l0,0
				C435.3,179.6,435.1,180,434.8,180z"/>
		</g>
		<g>
			<path class="st6" d="M477.6,170.4l-30.8,0.1c-0.3,0-0.5-0.3-0.5-0.7l0,0c0-0.4,0.2-0.7,0.5-0.7l30.8-0.1c0.3,0,0.5,0.3,0.5,0.7
				l0,0C478.2,170.1,477.9,170.4,477.6,170.4z"/>
			<path class="st6" d="M477.6,167.2l-30.8,0.1c-0.3,0-0.5-0.3-0.5-0.7l0,0c0-0.4,0.2-0.7,0.5-0.7l30.8-0.1c0.3,0,0.5,0.3,0.5,0.7
				l0,0C478.2,166.9,477.9,167.2,477.6,167.2z"/>
			<path class="st6" d="M477.6,173.6l-30.8,0.1c-0.3,0-0.5-0.3-0.5-0.7l0,0c0-0.4,0.2-0.7,0.5-0.7l30.8-0.1c0.3,0,0.5,0.3,0.5,0.7
				l0,0C478.2,173.3,477.9,173.6,477.6,173.6z"/>
			<path class="st6" d="M477.6,176.8l-30.8,0.1c-0.3,0-0.5-0.3-0.5-0.7l0,0c0-0.4,0.2-0.7,0.5-0.7l30.8-0.1c0.3,0,0.5,0.3,0.5,0.7
				l0,0C478.2,176.5,477.9,176.8,477.6,176.8z"/>
			<path class="st6" d="M470.4,180l-23.5,0.1c-0.3,0-0.5-0.3-0.5-0.7l0,0c0-0.4,0.2-0.7,0.5-0.7l23.5-0.1c0.3,0,0.5,0.3,0.5,0.7l0,0
				C470.9,179.7,470.7,180,470.4,180z"/>
		</g>
		<g>
			<path class="st6" d="M513.2,170.4l-30.8,0.1c-0.3,0-0.5-0.3-0.5-0.7l0,0c0-0.4,0.2-0.7,0.5-0.7l30.8-0.1c0.3,0,0.5,0.3,0.5,0.7
				l0,0C513.8,170.1,513.5,170.4,513.2,170.4z"/>
			<path class="st6" d="M513.2,167.2l-30.8,0.1c-0.3,0-0.5-0.3-0.5-0.7l0,0c0-0.4,0.2-0.7,0.5-0.7l30.8-0.1c0.3,0,0.5,0.3,0.5,0.7
				l0,0C513.7,166.9,513.5,167.2,513.2,167.2z"/>
			<path class="st6" d="M513.2,173.6l-30.8,0.1c-0.3,0-0.5-0.3-0.5-0.7l0,0c0-0.4,0.2-0.7,0.5-0.7l30.8-0.1c0.3,0,0.5,0.3,0.5,0.7
				l0,0C513.8,173.3,513.5,173.6,513.2,173.6z"/>
			<path class="st6" d="M513.2,176.8l-30.8,0.1c-0.3,0-0.5-0.3-0.5-0.7l0,0c0-0.4,0.2-0.7,0.5-0.7l30.8-0.1c0.3,0,0.5,0.3,0.5,0.7
				l0,0C513.8,176.5,513.5,176.8,513.2,176.8z"/>
			<path class="st6" d="M506,180l-23.5,0.1c-0.3,0-0.5-0.3-0.5-0.7l0,0c0-0.4,0.2-0.7,0.5-0.7l23.5-0.1c0.3,0,0.5,0.3,0.5,0.7l0,0
				C506.5,179.7,506.2,180,506,180z"/>
		</g>
		<g>
			<path class="st6" d="M358.3,179l-9.8,0c-0.3,0-0.5-0.3-0.5-0.7l0,0c0-0.4,0.2-0.7,0.5-0.7l9.8,0c0.3,0,0.5,0.3,0.5,0.7l0,0
				C358.8,178.6,358.5,179,358.3,179z"/>
			<path class="st6" d="M373.2,179l-9.8,0c-0.3,0-0.5-0.3-0.5-0.7l0,0c0-0.4,0.2-0.7,0.5-0.7l9.8,0c0.3,0,0.5,0.3,0.5,0.7l0,0
				C373.7,178.6,373.5,179,373.2,179z"/>
			<path class="st6" d="M388.1,179l-9.8,0c-0.3,0-0.5-0.3-0.5-0.7l0,0c0-0.4,0.2-0.7,0.5-0.7l9.8,0c0.3,0,0.5,0.3,0.5,0.7l0,0
				C388.7,178.7,388.4,179,388.1,179z"/>
			<path class="st6" d="M403.1,179l-9.8,0c-0.3,0-0.5-0.3-0.5-0.7l0,0c0-0.4,0.2-0.7,0.5-0.7l9.8,0c0.3,0,0.5,0.3,0.5,0.7l0,0
				C403.6,178.7,403.4,179,403.1,179z"/>
		</g>
	</g>
	<g>
		<path class="st7" d="M514.1,154L514.1,154c0,1.4-1,2.6-2.3,2.6l-60.6,0.1l-34.1,0.1c-1.3,0-2.3-1.1-2.3-2.5l-0.1-69.8
			c0-1.4,1-2.6,2.3-2.6l94.7-0.2c1.3,0,2.3,1.1,2.3,2.5l0,2.7L514.1,154z"/>
		<path class="st8" d="M510.9,150L510.9,150c0,1.4-1,2.6-2.3,2.6l-60.6,0.1l-34.1,0.1c-1.3,0-2.3-1.1-2.3-2.5l-0.1-69.8
			c0-1.4,1-2.6,2.3-2.6l94.7-0.2c1.3,0,2.3,1.1,2.3,2.5l0,2.7L510.9,150z"/>
		<path class="st4" d="M418.4,120c0,0,5.3-17.1,18-16c12.7,1,15.8,31.9,25.3,32.2s10.1-34.2,19.8-37.7c9.7-3.5,11.9,30.9,14.1,33.2
			c2.2,2.3,3.6-24.1,8.8-25.5l0.2,40.3h-86.1L418.4,120z"/>
		<path class="st9" d="M423.5,111.7c3.4,1.8,5.5,5.3,7.1,8.9s2.9,7.4,5.4,10.3c2.5,2.9,6.7,4.8,10.1,3.1c3-1.4,4.5-5,5.6-8.3
			c3.2-9.6,6-33.8,13.4-33.8c12,0,12.6,21.3,18.7,31.2c1.2,1.9,3.5,7.1,7.9,7.1c6.2-0.1,9.9-9,13.1-16.3"/>
		<polyline class="st9" points="504.5,146.5 418.4,146.5 418.4,86 		"/>
		<line class="st10" x1="490.3" y1="85" x2="502.6" y2="85"/>
		<line class="st10" x1="490.3" y1="87.1" x2="502.6" y2="87.1"/>
		<line class="st10" x1="490.3" y1="89.2" x2="502.6" y2="89.2"/>
		<line class="st10" x1="482.3" y1="85" x2="487.9" y2="85"/>
		<line class="st10" x1="482.3" y1="87.1" x2="487.9" y2="87.1"/>
		<line class="st10" x1="482.3" y1="89.2" x2="487.9" y2="89.2"/>
		<g>
			<ellipse class="st6" cx="423.5" cy="111.4" rx="0.7" ry="0.7"/>
			<path class="st6" d="M434.5,127.8c0,0.4-0.3,0.7-0.7,0.7c-0.4,0-0.7-0.3-0.7-0.7c0-0.4,0.3-0.7,0.7-0.7
				C434.1,127.1,434.5,127.4,434.5,127.8z"/>
			<path class="st6" d="M505.4,114.1c0,0.4-0.3,0.7-0.7,0.7c-0.4,0-0.7-0.3-0.7-0.7c0-0.4,0.3-0.7,0.7-0.7
				C505.1,113.4,505.4,113.7,505.4,114.1z"/>
		</g>
	</g>
	<g>
		<path class="st11" d="M537.3,182h-23.6v-15c0-1.2,0.9-2.1,2-2.1h8.9c0.2,0,0.4,0.1,0.6,0.2l2.2,1.9c0.2,0.2,0.4,0.2,0.7,0.2h7.2
			c1.1,0,2,0.9,2,2.1L537.3,182L537.3,182z"/>
		<path class="st6" d="M534.9,179.9h-18.4c-0.7,0-1.2-0.5-1.2-1.2v-9.4c0-0.7,0.5-1.2,1.2-1.2h18.4c0.7,0,1.2,0.5,1.2,1.2v9.4
			C536.1,179.3,535.6,179.9,534.9,179.9z"/>
		<path class="st12" d="M535,186h-19c-1.2,0-2.3-1-2.3-2.3v-11c0-1.2,1-2.3,2.3-2.3h19c1.2,0,2.3,1,2.3,2.3v11
			C537.3,184.9,536.3,186,535,186z"/>
	</g>
	<g>
		<path class="st6" d="M549.8,198.5v27.3c0,1.1-0.9,2-1.9,2H489c-1.1,0-1.9-0.9-1.9-2v-27.3c0-1.1,0.9-2,1.9-2h58.9
			C548.9,196.4,549.8,197.4,549.8,198.5z"/>
		<path class="st13" d="M549.8,198.5v3.9H487v-3.9c0-1.1,0.9-2,1.9-2h58.9C548.9,196.4,549.8,197.4,549.8,198.5z"/>
		<path class="st14" d="M547.3,205.7v18.8h-57.9v-6c2.3-3.3,5.5-5.6,12.8-1.1c7,4.3,7-9.6,15-8.9c8,0.7,10.2,13.2,16.4,3.7
			C539.9,202.7,547.3,205.7,547.3,205.7z"/>
		<rect x="489.4" y="205.6" class="st14" width="11.4" height="0.8"/>
		<rect x="489.4" y="207" class="st14" width="19.3" height="0.8"/>
		<rect x="489.4" y="208.4" class="st14" width="14.5" height="0.8"/>
		<rect x="489.4" y="209.9" class="st14" width="17.5" height="0.8"/>
		<rect x="489.4" y="211.3" class="st14" width="11.4" height="0.8"/>
	</g>
	<g class="st15">
		<rect x="349.4" y="187.5" class="st6" width="19" height="13.4"/>
		<rect x="348.4" y="186.7" class="st16" width="20.8" height="14.9"/>
		<polygon class="st17" points="368.3,187.5 368.3,200.9 358.8,194.2 349.4,187.5 		"/>
		<polygon class="st18" points="368.3,187.5 358.8,194.2 349.4,187.5 		"/>
	</g>
	<g>
		<g>
			<path class="st6" d="M310,69.7c-1.6,2.4-2.5,5.2-2.5,8.3c0,1.7,0.3,3.2,0.8,4.7l13.2-4.7L310,69.7z"/>
			<path class="st19" d="M323.5,62.1v14.5l10.3,9.8c2.3-2.6,3.7-6.1,3.7-9.8C337.4,68.6,331.1,62.1,323.5,62.1z"/>
			<path class="st4" d="M321.5,63.4c-4.8,0-8.9,2.5-11.5,6.2l11.5,8.3V63.4z"/>
			<path class="st4" d="M318.9,92.2c0.8,0.2,1.7,0.2,2.6,0.2c4.1,0,7.7-1.8,10.3-4.7l-10.3-9.8L318.9,92.2z"/>
			<path class="st20" d="M308.2,82.7c1.6,4.9,5.6,8.6,10.6,9.6l2.6-14.3L308.2,82.7z"/>
		</g>
	</g>
	<g class="st21">
		<path class="st6" d="M552.4,96.9h1.7c0.2,0,0.4-0.2,0.4-0.4v-4.1c0-0.2-0.2-0.4-0.4-0.4h-1.7c0-0.2-0.1-0.4-0.2-0.6l1.5-0.9
			c0.2-0.1,0.3-0.4,0.2-0.6l-2-3.5c-0.1-0.2-0.4-0.3-0.5-0.2l-1.5,0.9c-0.2-0.2-0.3-0.3-0.5-0.5l0,0l0.8-1.5c0.1-0.2,0-0.5-0.2-0.6
			l-3.4-2.1c-0.2-0.1-0.4-0.1-0.5,0.2l-0.8,1.5c-0.2-0.1-0.4-0.1-0.6-0.2l0,0v-1.8c0-0.2-0.2-0.4-0.4-0.4h-3.9
			c-0.2,0-0.4,0.2-0.4,0.4v1.8l0,0c-0.2,0.1-0.4,0.1-0.6,0.2l-0.8-1.5c-0.1-0.2-0.4-0.3-0.5-0.2l-3.4,2.1c-0.2,0.1-0.3,0.4-0.2,0.6
			l0.8,1.5l0,0c-0.2,0.2-0.3,0.3-0.5,0.5l-1.5-0.9c-0.2-0.1-0.4-0.1-0.5,0.2l-2,3.5c-0.1,0.2,0,0.5,0.2,0.6l1.5,0.9
			c-0.1,0.2-0.1,0.4-0.2,0.6h-1.7c-0.2,0-0.4,0.2-0.4,0.4v4.1c0,0.2,0.2,0.4,0.4,0.4h1.7c0,0.2,0.1,0.4,0.2,0.6l0,0l-1.5,0.9
			c-0.2,0.1-0.3,0.4-0.2,0.6l2,3.5c0.1,0.2,0.4,0.3,0.5,0.2l1.5-0.9c0.2,0.2,0.3,0.3,0.5,0.5l0,0l-0.8,1.5c-0.1,0.2,0,0.5,0.2,0.6
			l3.4,2.1c0.2,0.1,0.4,0.1,0.5-0.2l0.8-1.5c0.2,0.1,0.4,0.1,0.6,0.2l0,0v1.8c0,0.2,0.2,0.4,0.4,0.4h3.9c0.2,0,0.4-0.2,0.4-0.4v-1.8
			l0,0c0.2-0.1,0.4-0.1,0.6-0.2l0.8,1.5c0.1,0.2,0.4,0.3,0.5,0.2l3.4-2.1c0.2-0.1,0.3-0.4,0.2-0.6l-0.8-1.5l0,0
			c0.2-0.2,0.3-0.3,0.5-0.5l1.5,0.9c0.2,0.1,0.4,0.1,0.5-0.2l2-3.5c0.1-0.2,0-0.5-0.2-0.6l-1.5-0.9l0,0
			C552.3,97.3,552.3,97.1,552.4,96.9z M543.5,100.3c-4,0.8-7.6-2.9-6.8-7.1c0.5-2.4,2.2-4.2,4.5-4.7c4-0.8,7.5,2.9,6.8,7
			C547.5,97.9,545.7,99.8,543.5,100.3z"/>
	</g>
	<g>
		<rect x="300.2" y="107.3" class="st6" width="33.7" height="24.5"/>
		<rect x="303.9" y="110" class="st22" width="26.3" height="19.1"/>
		<polygon class="st23" points="322.6,119.6 315,129.1 330.2,129.1 		"/>
		<polygon class="st24" points="314,116.5 303.9,129.1 324,129.1 		"/>
		<path class="st25" d="M325,115.4c0,1.3-1,2.4-2.3,2.4s-2.3-1.1-2.3-2.4s1-2.4,2.3-2.4C323.9,113,325,114.1,325,115.4z"/>
	</g>
	<g>
		<ellipse class="st6" cx="527.5" cy="111.4" rx="2" ry="2"/>
		<path class="st6" d="M535.7,113.5c0.2-0.7,0.2-1.4,0.2-2.1s-0.1-1.4-0.2-2.1l-2.1,0.4c-0.2-0.6-0.4-1.2-0.7-1.7l1.8-1.3
			c-0.7-1.2-1.7-2.2-2.8-3l-1.2,1.9c-0.5-0.3-1-0.5-1.6-0.7l0.4-2.2c-0.7-0.2-1.3-0.2-2-0.2s-1.4,0.1-2,0.2l0.4,2.2
			c-0.6,0.2-1.1,0.4-1.6,0.7l-1.2-1.9c-1.2,0.7-2.1,1.8-2.8,3l1.8,1.3c-0.3,0.5-0.5,1.1-0.7,1.7l-2.1-0.4c-0.2,0.7-0.2,1.4-0.2,2.1
			s0.1,1.4,0.2,2.1l2.1-0.4c0.2,0.6,0.4,1.2,0.7,1.7l-1.8,1.3c0.7,1.2,1.7,2.2,2.8,3l1.2-1.9c0.5,0.3,1,0.5,1.6,0.7l-0.4,2.2
			c0.7,0.2,1.3,0.2,2,0.2s1.4-0.1,2-0.2l-0.4-2.2c0.6-0.2,1.1-0.4,1.6-0.7l1.2,1.9c1.2-0.7,2.1-1.8,2.8-3l-1.8-1.3
			c0.3-0.5,0.5-1.1,0.7-1.7L535.7,113.5z M527.5,115.7c-2.3,0-4.2-1.9-4.2-4.3s1.9-4.3,4.2-4.3s4.2,1.9,4.2,4.3
			S529.8,115.7,527.5,115.7z"/>
	</g>
	<g>
		<path class="st13" d="M359.3,168h-75.6c-1.1,0-2.1-0.9-2.1-2.1v-15.4c0-1.1,0.9-2.1,2.1-2.1h75.6c1.1,0,2.1,0.9,2.1,2.1v15.4
			C361.3,167.1,360.4,168,359.3,168z"/>
		<g>
			<path class="st6" d="M351.9,161.6h-60.8c-1.8,0-3.2-1.5-3.2-3.3l0,0c0-1.8,1.4-3.3,3.2-3.3h60.8c1.8,0,3.2,1.5,3.2,3.3l0,0
				C355,160.1,353.6,161.6,351.9,161.6z"/>
			<ellipse class="st6" cx="348" cy="158.2" rx="7.1" ry="7.4"/>
			<line class="st26" x1="291.6" y1="156.7" x2="291.6" y2="159.8"/>
			<g>
				<path class="st27" d="M349.8,157.9c0,1.3-1,2.4-2.3,2.4s-2.3-1.1-2.3-2.4c0-1.3,1-2.4,2.3-2.4
					C348.8,155.5,349.8,156.6,349.8,157.9z"/>
				<line class="st28" x1="350.7" y1="161" x2="349.1" y2="159.6"/>
			</g>
		</g>
	</g>
	<g class="st29">
		<path class="st6" d="M368.7,97.1L352,97.1c-0.8,0-1.4-1-1.4-2.3v-0.7c0-1.3,0.6-2.3,1.4-2.3l16.7-0.1c0.8,0,1.4,1,1.4,2.3v0.7
			C370.1,96.1,369.5,97.1,368.7,97.1z"/>
		<path class="st6" d="M361.6,144.4l-9.5,0c-0.8,0-1.4-1-1.4-2.3v-0.7c0-1.3,0.6-2.3,1.4-2.3l9.5,0c0.8,0,1.4,1,1.4,2.3v0.7
			C362.9,143.3,362.3,144.4,361.6,144.4z"/>
		<path class="st6" d="M390.2,106.3l-38.2,0.1c-0.8,0-1.4-1-1.4-2.3v-0.7c0-1.3,0.6-2.3,1.4-2.3l38.2-0.1c0.8,0,1.4,1,1.4,2.3v0.7
			C391.6,105.3,391,106.3,390.2,106.3z"/>
		<g>
			<path class="st6" d="M402.3,119.7l-51.1,0.2c-0.3,0-0.5-0.4-0.5-0.8v-0.2c0-0.5,0.2-0.8,0.5-0.8l51.1-0.2c0.3,0,0.5,0.4,0.5,0.8
				v0.2C402.8,119.3,402.6,119.7,402.3,119.7z"/>
			<path class="st6" d="M402.3,115.5l-51.1,0.2c-0.3,0-0.5-0.4-0.5-0.8v-0.2c0-0.5,0.2-0.8,0.5-0.8l51.1-0.2c0.3,0,0.5,0.4,0.5,0.8
				v0.2C402.8,115.1,402.6,115.5,402.3,115.5z"/>
			<path class="st6" d="M402.3,123.9l-51.1,0.2c-0.3,0-0.5-0.4-0.5-0.8V123c0-0.5,0.2-0.8,0.5-0.8l51.1-0.2c0.3,0,0.5,0.4,0.5,0.8
				v0.2C402.8,123.6,402.6,123.9,402.3,123.9z"/>
			<path class="st6" d="M402.3,128.2l-51.1,0.2c-0.3,0-0.5-0.4-0.5-0.8v-0.2c0-0.5,0.2-0.8,0.5-0.8l51.1-0.2c0.3,0,0.5,0.4,0.5,0.8
				v0.2C402.8,127.8,402.6,128.2,402.3,128.2z"/>
			<path class="st6" d="M390.4,132.4l-39.2,0.1c-0.3,0-0.5-0.4-0.5-0.8v-0.2c0-0.5,0.2-0.8,0.5-0.8l39.2-0.1c0.3,0,0.5,0.4,0.5,0.8
				v0.2C390.9,132.1,390.7,132.4,390.4,132.4z"/>
		</g>
	</g>
	<path class="st6" d="M478.2,163.8h20.1c1.3,0,2.3-1.1,2.3-2.4V152c0-1.3-1-2.4-2.3-2.4h-14c-1.3,0-2.3,1.1-2.3,2.4v8.2L478.2,163.8
		z M494.6,156.7c0-0.9,0.7-1.5,1.5-1.5s1.5,0.7,1.5,1.5s-0.7,1.6-1.5,1.6S494.6,157.5,494.6,156.7z M489.4,156.7
		c0-0.9,0.7-1.5,1.5-1.5s1.5,0.7,1.5,1.5s-0.7,1.6-1.5,1.6S489.4,157.5,489.4,156.7z M484.3,156.7c0-0.9,0.7-1.5,1.5-1.5
		s1.5,0.7,1.5,1.5s-0.7,1.6-1.5,1.6C484.9,158.2,484.3,157.5,484.3,156.7z"/>
</g>
<g>
	<g>
		<path class="st30" d="M413.9,181.6c-0.1,0.6-0.5,1.2-0.9,1.6c-0.5,0.5-1.1,0.8-1.8,0.9c-1.8,0.2-3.8-0.1-6.7,0.3
			c-4.8,0.7-9.7,1.4-11.9,1.6c-1.2,0.1-3.7,0.4-5.1-0.2c0,0-0.1,0-0.1,0c0,0,0,0,0,0c-0.3-0.3-0.3-1.1-0.2-1.9
			c0.1-0.9,0.3-1.8,0.3-2c0.2-2.4,2.1-3.2,3-3.4c0.3-0.1,11.1-2.4,14.4-3c1.6-0.3,2.5,0.2,4,0.6c1,0.3,2,0.8,2.9,1.4
			C413.1,178.6,414.2,179.9,413.9,181.6z"/>
		<path class="st6" d="M413.9,181.7c-0.1,0.6-0.5,1.2-0.9,1.6c-0.5,0.5-1.1,0.8-1.8,0.9c-1.8,0.2-3.8-0.4-6.7,0.6
			c-0.5,0.2-1,0.3-1.6,0.4c-1.9,0.4-4.1,0.6-5.6,0.8c-0.2-0.3-0.3-0.7-0.4-1c-1.1-3-1.1-6.5-0.9-8c3-0.6,9-1.9,10.5-2.1
			c1.6-0.3,0.9,0.9,2.4,1.3c1,0.3,2,0.8,2.9,1.4C413.1,178.6,414.2,179.9,413.9,181.7z"/>
		<path class="st31" d="M402.8,185.2c-1.9,0.4-4.1,0.6-5.6,0.8c-0.2-0.3-0.3-0.7-0.4-1c1.5-0.1,3.3-0.5,3.3-0.5
			c0.6-4.1,2.2-5.6,2.2-5.6S402.6,182.5,402.8,185.2z"/>
		<path class="st30" d="M391.9,183.9c-0.1,0.3-0.3,0.6-0.5,0.9c-0.1,0.1-0.2,0.2-0.3,0.3c-1.2,1.2-3,1-3.3,0.9h0
			c-0.1,0-0.3-0.1-0.4-0.1c0,0-0.1,0-0.1-0.1c-2.9-1.3-17.3-13-17.3-13l0.2-0.3l1.3-2.1c0,0,9.4,4.3,13.7,5.9
			c1.9,0.7,3.8,1.3,5.1,2.2c0.2,0.1,0.3,0.2,0.5,0.3C390.9,178.8,392.9,181.2,391.9,183.9z"/>
	</g>
	<g>
		<path class="st6" d="M422.9,203.1c-0.9,2.4-1.1,5-0.6,7.5c1.1,5-0.1,5.3-0.1,5.3s-6.5,4.3-11.9,6.1c-3.9,1.2-7.2,1-7.1-3.4v-0.1
			c0-0.3,0-0.5,0-0.8c0.2-10-1.8-10.5-2.3-21.7c-0.5-11.5-0.4-18.3,3.1-20.1c3.9-2,9.1-3.4,16.6-1.6c5.6,1.4,7.5,2.9,7.5,7.3
			c0,1.4-0.2,3.2-0.6,5.4C426.7,192.4,424.4,199,422.9,203.1z"/>
		<path class="st31" d="M422.9,203.1c-0.9,2.4-1.1,5-0.6,7.5c1.1,5-0.1,5.3-0.1,5.3s-6.5,4.3-11.9,6.1l-5-0.5l-2-1.6l0-1.3
			c0-0.3,0-0.5,0-0.8c1.1,0.1,3.8,0.2,7.6-0.2c3-0.4,5.7-1.2,7.5-1.9c1.3-0.5,2.1-1.9,1.8-3.4c-0.3-2-0.7-4.8-0.7-7
			c0-2.2,1-5.9,1.8-8.6c0.6-2.1,0.8-4.2,0.7-6.4c-0.2-3.7,0-7.3,0-7.3l4-2.3l2.2,0.9c0,1.4-0.2,3.2-0.6,5.4
			C426.7,192.4,424.4,199,422.9,203.1z"/>
		<g>
			<path class="st32" d="M405.8,157.4c0,0-2.5-2.9-2.1-7c0.2-2.4,0.9-4.8,4.4-5.6c3.6-0.9,8.5,3.4,8.5,3.4s5.9,0.5,6.3,9.6l-7.1-1.6
				L405.8,157.4z"/>
			<path class="st30" d="M421.6,160.5c-0.1,5.6-4.8,8.9-4.8,8.9l0.3,5.1l-3.1,2.1l-2.2,1.5l-1.2-2.7l-0.2-3.3c0-0.8-0.6-1.4-1.3-1.6
				c-0.8-0.2-1.9-0.7-3.1-1.9c-0.1-0.1-0.1-0.2-0.2-0.2c0,0,0,0,0,0c-2-2.9-2.8-14,4.2-17.2C417.2,147.9,421.7,154.9,421.6,160.5z"
				/>
			<path class="st33" d="M413.8,173.6l0.2,3.1l-2.2,1.5l-1.2-2.7l-0.2-3.3c0-0.8-0.6-1.4-1.3-1.6c-0.8-0.2-1.9-0.7-3.1-1.9
				c-0.1-0.1-0.1-0.2-0.2-0.2c0.1,0.1,1.8,1.1,4.4,1.4C412.1,170,413.6,171.6,413.8,173.6z"/>
			<path class="st32" d="M414.1,162.3c0.3,0.1,0.5-0.3,0.5-0.3s1.5-3.6,2-4.1c0.9-1,3.1-0.9,3.3,2.1c0.1,2.4-2.5,7.4-3.4,8.9
				c-0.1,0.2-0.1,0.5,0.1,0.7c0.1,0.1,0.2,0.1,0.3,0.1h0c0.1,0,0.2,0,0.4-0.1c1.7-1.6,9.3-9.2,3.3-16.3c0,0-4.8,0.3-5.5,2.7
				c-0.7,2.4-1.3,5.7-1.3,5.7S413.8,162.1,414.1,162.3z"/>
		</g>
		<path class="st34" d="M409.3,178.5c0,0-5.9,20-4.7,29.6l2.1,4.1l2.4-4.5c0,0-1.9-19.1,1.8-28.9L409.3,178.5z"/>
		<path class="st35" d="M408.9,176.8l0,0.3c0.1,0.5,0.2,1,0.4,1.4l0,0l1.6,0.3l1.4-1.1l-1.6-1.9l-0.2,0.1
			C409.9,176,409.3,176.3,408.9,176.8L408.9,176.8z"/>
		<path class="st36" d="M417.1,172.2c0,0,0.8,0.4,1.5,1.6c0,0-1,0.5-1.9,1.1c-0.8,0.5-4.8,3.4-4.8,3.4l-1.2-2.5
			C410.7,175.8,414.8,172.8,417.1,172.2z"/>
		<path class="st36" d="M410.7,175.8c0,0-1.4,0.5-1.8,1.6c0,0-0.7-1.4,0.2-3.9c0,0,0.8-0.8,1.4-1L410.7,175.8z"/>
	</g>
	<g>
		<g>
			<path class="st31" d="M388.2,314.7c0,1.1,13.9,2,31,2s31-0.9,31-2c0-1.1-13.9-2-31-2C402.1,312.7,388.2,313.6,388.2,314.7z"/>
		</g>
	</g>
	<g>
		<path class="st30" d="M404.5,308.4c0,0-0.5,1.5-0.5,2.4c0.1,1,3,1,3.4,0.5c0.3-0.5,0.5-4.9,0.5-4.9"/>
		<path class="st37" d="M408.2,312.2c0,1-0.3,2.6-0.3,2.6h-3.4l-0.2-0.6c0,0-1.1,0.6-2,0.6h-2.9c-2.1,0-3.3-0.3-3.4-0.7
			c-0.2-1.6,2.3-1.5,2.9-1.5c1.9,0,3.9-0.9,4.4-1.9c0.3-0.7,0.2-0.9,0.6-0.8c0,0,0.4,0.1,0.6,0.5c0.4,0.7,1,1.1,1.8,1
			c0.4-0.1,0.8-0.2,1.1-0.6C407.5,310.9,408.2,311.2,408.2,312.2z"/>
	</g>
	<g>
		<path class="st30" d="M437.6,305c0,0,0.6,2.6,1,3.5s3.2-0.2,3.3-0.8c0.1-0.6-1.3-4.8-1.3-4.8"/>
		<path class="st37" d="M443,308.2c0.4,0.9,0.9,2.8,0.9,2.8l-2.6,1.6l-0.5-0.4c0,0-0.6,1-1.4,1.5c-0.6,0.4-1.9,0.9-2.5,1.1
			c-2.4,0.6-4.2,0.3-4.4,0c-0.8-1.4,2.3-2.2,3-2.4c1.7-0.7,2.5-2.5,2.6-3.6c0-0.8-0.1-0.9,0.2-0.9c0,0,0.4-0.1,0.7,0.3
			c0.6,0.5,1.4,0.7,2,0.2c0.4-0.2,0.7-0.5,0.9-1C441.9,307.2,442.6,307.2,443,308.2z"/>
	</g>
	<g>
		<path class="st34" d="M425.7,235.8c0,0,4.6-11.5-3.4-19.9c0,0-6.9,3.2-12.4,3.6c-4.3,0.3-6.5-0.2-6.5-0.2s-1,8.4-0.4,21.6
			L425.7,235.8z"/>
		<path class="st34" d="M408.3,309.5c-0.1,0-0.3,0-0.4,0c-2.9,0-4.5-0.3-4.5-0.3v-0.9c0.2-13.2-1.4-34.8-1.7-41.6c0-0.5,0-0.9,0-1.3
			c0.5-5,5.5-4.3,7.5,0.2c0.5,1.1,0.9,2.2,1.2,3.5c0.4,1.5,0.6,3.2,0.8,5C412.2,285.5,409.2,301,408.3,309.5z"/>
		<path class="st34" d="M416.9,241.2c0,0.1,0,0.3-0.1,0.4c-1.1,6-4.6,22.3-6.4,27.5v0c-0.2,0.7-1.1,1.4-2.2,1.7
			c-2.5,0.7-6.2-0.3-6.5-5.4c0-0.6,0-1.2,0-1.9c0.3-4.2,1.2-27.4,1.4-29.7c0.2-2.2,0.6-5.5,1.7-5.9
			C410.5,225.8,418.4,232.8,416.9,241.2z"/>
		<path class="st35" d="M411.2,274.1c1,11.4-2.1,26.8-2.9,35.3c-0.1,0-0.3,0-0.4,0c0,0,0.7-13.5,1.9-22.8c0.9-7.2-0.7-13.4-1.5-15.8
			c-0.2-0.7-0.4-1.1-0.4-1.1l1.4-4.1c1.5-5.3,1.6-17.7,1.6-17.7c-3.8-8.7-4.3-19.7-4.3-19.7l3.2,0.5l5.8,7.2l1.2,5.6
			c-1.1,6-4.6,22.3-6.4,27.5v0C410.8,270.7,411.1,272.4,411.2,274.1z"/>
		<path class="st35" d="M411.6,265.1c0,0-1,4.6-0.4,9s-2-3.9-2-3.9l1.4-3L411.6,265.1z"/>
		<path class="st34" d="M428.2,265.3c-3.8-3.8-9.2-2-6.7,3.9c2.7,6.2,10.9,23.6,15.4,35.9l0.3,0.8c0,0,1.8-0.3,4.7-1.6
			c-2.1-8-3.7-21.9-8.1-31.5C432.4,269.7,430.2,267.2,428.2,265.3z"/>
		<g>
			<g>
				<path class="st34" d="M406.6,228.3c-0.8-9.3,10.4-3.1,15.7-0.1c2.2,1.3,3.1,3.9,3.4,6.3c0.3,2.4,3.2,27.5,3.8,32
					c1.3,10.3-7.3,4.7-8.1,1.8C419.2,261.2,407,233.4,406.6,228.3z"/>
			</g>
		</g>
		<path class="st34" d="M428.6,260.2c0,0,0.4,4.9,4.3,11c0,0-6.5-3.1-6.8-3.6s-1.5-5.2-1.3-5.7C424.9,261.4,428.6,260.2,428.6,260.2
			z"/>
	</g>
	<g>
		<path class="st30" d="M439.1,199.4C439.1,199.4,439.1,199.4,439.1,199.4c-0.1,0.4-0.6,0.7-1.2,0.9c-0.9,0.4-2,0.6-2.2,0.7
			c-2.1,0.8-10.5-10.2-12.4-13.1c-0.9-1.4-1.5-2.9-1.8-4.6c-0.2-1.1-0.2-2.2,0-3.4c0.3-1.8,1-3.4,2.6-3.8c0,0,0,0,0,0
			c0.6-0.2,1.2-0.1,1.8,0.1c0.6,0.3,1.2,0.7,1.5,1.4c2.5,4.2,9.1,14.2,10.5,17.6C438.1,195.9,439,197.9,439.1,199.4z"/>
		<path class="st6" d="M434.5,188.4c-2.1,1.4-5.6,4.6-7,5.8c-2-2.4-3.6-4.6-4.3-5.7c-0.9-1.4-1.9-2-2.2-3.6
			c-0.2-1.1,0.2-3.6,0.4-4.8c0.3-1.8,1-3.4,2.6-3.8c0,0,0,0,0,0c0.6-0.1,1.2-0.1,1.8,0.1c0.6,0.3,1.2,0.7,1.5,1.4
			C428.8,180.2,432,184.4,434.5,188.4z"/>
		<path class="st30" d="M437.9,211.8c-1,4.3-2.5,8.6-2.5,8.6l-1.2,0.3l-1.6-0.5c0,0,1.3-9.5,0.5-14.3c-0.4-2.1-0.5-9.6,2.3-9.9
			c0.4,0,0.7,0,1,0.1c0.1,0,0.1,0,0.2,0.1c1.6,0.5,2.3,2.4,2.4,2.8c0,0.2,0.1,0.4,0.1,0.6C439.6,203.6,438.8,207.8,437.9,211.8z"/>
	</g>
	<path class="st32" d="M405,153.7c0,0,7.1-1.5,10.5,3l5-2.4c0,0-1.3-1.6-1.5-1.7c-0.2-0.1-1.3-1.5-2-1.8c-0.7-0.3-3.6-1.3-4-1.3
		s-1.4-0.2-2.3,0c-0.9,0.2-1.4,0.4-1.8,0.6s-1.8,1.1-1.8,1.1L405,153.7z"/>
	<g>
		<path class="st30" d="M368.1,169.5c0,0-0.7-1.6-0.4-2.5c0.2-0.8,0.4-1.3,0.4-1.5c0-0.2,0.2-1.4,0.4-1.6c0.2-0.3,0.5-0.3,0.7-0.2
			c0.2,0.1-0.2,1.4-0.1,1.8c0.1,0.4,0.7,2.1,0.6,2.7C369.6,168.9,369.4,170.4,368.1,169.5z"/>
		<path class="st30" d="M369.6,168.2c-0.3-0.9-1-2.7-1.1-3.6c-0.2-0.9-1.9-3.6-2.3-3.8c-0.2-0.1-0.4,0.1-0.4,0.5
			c-0.2-0.3-0.5-0.6-0.7-0.7c-0.2-0.1-0.4,0.5-0.2,1c0,0.1,0.1,0.2,0.1,0.3c-0.2,0.1-0.3,0.6-0.1,1.1c0.1,0.4,0.3,0.7,0.5,1
			c-0.1,0.2-0.1,0.5,0,0.7c0.1,0.4,0.5,1.5,0.5,2.1c0.1,0.5-0.6,2.7,2,4.6c0.9,0.6,2.5,1.7,2.5,1.7l1.4-2.6
			C371.9,170.6,369.9,169.1,369.6,168.2z"/>
		
			<linearGradient id="SVGID_3_" gradientUnits="userSpaceOnUse" x1="369.7001" y1="234.6304" x2="367.8753" y2="231.515" gradientTransform="matrix(1 0 0 -1 0 400)">
			<stop  offset="0" style="stop-color:#F15A29"/>
			<stop  offset="1" style="stop-color:#F7941E;stop-opacity:3.080000e-02"/>
		</linearGradient>
		<path class="st38" d="M367.9,170c0,0-0.9-1.1-0.2-3c0.3-0.8,0.4-1.3,0.4-1.5c0-0.2,0.2-1.4,0.4-1.6c0.2-0.3,0.5-0.3,0.7-0.2
			c0.2,0.1-0.2,1.4-0.1,1.8c0.1,0.4,0.7,2.1,0.6,2.7C369.6,168.9,369.2,171,367.9,170z"/>
	</g>
	<g>
		<path class="st39" d="M432.6,226.6c0,0-1.2,1.1-1.5,1.3s-0.3,0.9-0.3,0.9l1.4-0.6l0.4-0.9L432.6,226.6L432.6,226.6z"/>
		<path class="st39" d="M432.9,225.5c0,0-1.1,1-1.2,1.3c-0.2,0.2-0.3,1-0.3,1l1.3-0.2c0,0,0.3-0.4,0.4-0.5
			C433,226.9,432.9,225.5,432.9,225.5z"/>
		<path class="st30" d="M435.5,220.4l-0.1-0.5l-0.9-0.4l-1.8,0.7l-0.8,1.4c-0.3,0.4-0.8,1.1-0.8,1.1l0,0c-0.2,0.3-0.4,0.6-0.7,1.1
			c-0.2,0.5-0.6,1-0.5,1.2c0.1,0.2,0.5,0.2,0.8,0c0,0,0.1-0.1,0.1-0.1c0,0,0,0,0,0c0.2-0.2,0.3-0.6,0.8-0.8c0.1,0,0.2-0.1,0.3-0.1
			c0,0,0,0,0,0s0.6-0.2,0.9,0.4c0,0.1,0.1,0.2,0.1,0.4c0,0.4-0.5,1.9-0.5,2.3s-1.4,1.2-1.7,1.6s-0.2,0.8-0.1,0.9s0.2,0.1,0.3,0
			c0.1-0.1,2-1.4,2.2-1.6c0,0,0.1-0.2,0.2-0.3c0,0,0,0,0,0c0.4-0.2,0.9-0.5,1-0.7c0.2-0.2,0.9-1.7,1-2.3c0-0.1,0.1-0.2,0.1-0.3
			c0-0.3,0-2.2,0.1-3.5C435.4,220.6,435.5,220.4,435.5,220.4z"/>
		<path class="st39" d="M435.1,224.8c-0.1,0.6-0.8,2.1-1,2.3c-0.1,0.1-0.6,0.4-1,0.7l0,0c0,0,1.2-1.9,1.6-2.4
			C435,224.9,435.1,224.8,435.1,224.8z"/>
		<path class="st30" d="M432.9,218.9c0,0-0.3,1.5-0.5,2s0.7,0.6,0.7,0.6l0.4-1.6L432.9,218.9z"/>
	</g>
	<g>
		<path class="st40" d="M415.9,158.1c0-0.1,0-0.2,0-0.3c-0.1-0.6-3.1-4.4-9-4c-0.6,0-1.2,0.4-1.5,1c-0.5,1.2-1.3,2.8-1.3,4.4
			c0,0-0.3,0.4-0.1,0.8c0.1,0.2,0.2,0.6,0.2,0.7c0,0.1,0.3,0.4,0.3,0.4s0-0.5,0.9-0.8c1.2-0.2,3.5-0.3,6,1.4
			c0.9,0.6,1.5,1.4,2.1,1.2c0.4-0.1,0.7-0.7,1-1.3c0.1-0.3,0.5-0.4,0.7-0.2c1.5,0.9,4,2.5,5.4,4.6c0,0,1.4-0.9,1.5-2.8
			C422.1,163.1,420.4,159.4,415.9,158.1z"/>
		<path class="st41" d="M413.6,155.1c-0.4-0.3-2.4-1.4-5.2-1.6c-1.5-0.1-3.1,0.1-3.3,0.6c0,0-1,1.8-1.4,4.5
			c-0.1,0.4,0.1,1.2,0.1,1.2c0-0.2,0-0.4,0.1-0.5s0.2-0.1,0.2-0.1c1-0.1,5.2-0.2,6.9,1c2,1.4,1.8,1.3,2,1.1c0.2-0.1,1.8-3.5,2-4.3
			C415.3,156.2,414.2,155.5,413.6,155.1z"/>
	</g>
</g>
<g>
	<g>
		<path class="st31" d="M451.9,314.9c0,1,7.6,1.8,16.9,1.8s16.9-0.8,16.9-1.8c0-1-7.5-1.8-16.9-1.8
			C459.4,313,451.9,313.9,451.9,314.9z"/>
	</g>
	<path class="st30" d="M457.6,248.7c0,0-6-12,0.2-21.8c0,0,6.4,3,11.5,3.3c4,0.3,6.1-0.1,6.1-0.1s0.9,7.8,0.4,20L457.6,248.7z"/>
	<g>
		<path class="st30" d="M464.8,247.2c0,0.1,0,0.3,0,0.4c0.3,2.8,1.4,10.4,2.3,15.8c0.5,3.2,0.9,5.6,0.9,5.6s0.4,2.3,0.5,3.2
			c0.2,1.5,0.3,3.5,0,5.4c0,0.4-0.1,0.9-0.1,0.9c-0.5,5.3,0.1,11.3,0.8,17c0,0,0,0,0,0c0.7,5.7,1.7,11,2,15c0.1,0,2-0.3,2-0.3
			s3.3-32.5,3.6-38.8c0-0.4,0-0.8,0-1.2c0-0.4,0.1-0.7,0.1-1.1c0-3.9,1-32.7,0-33.2C471.9,233.6,464.1,239.3,464.8,247.2z"/>
		<path class="st37" d="M474,309.5c0,0,3,2.6,6.3,3.9c0.3,0.1,0.4,0.6,0.1,0.7c-1.3,0.7-5.8-0.3-7.1-1.1c-0.3,0.7-0.5,1.3-0.5,1.3
			h-1.6c0,0-1.3-2.7,0-4.8"/>
		<path class="st30" d="M471.5,309.6l1-1.5l1-0.8c0,0,0.2,1.9,1.1,2.6l0,0c0.5,0.4,0.9,0.7,1.6,1.2c0,0,0,0.4-0.5,0.5
			c-0.4,0-1.4-0.1-2.1-0.9v0c0,0,0,0-0.1-0.1c-0.1-0.1-0.1-0.1-0.2-0.2C473,310.1,472.4,309.5,471.5,309.6z"/>
	</g>
	<path class="st42" d="M468.5,272.2c0.2,1.5,0.3,3.5,0,5.4c0,0.4-0.1,0.9-0.1,0.9c-0.5,5.3,0.1,11.3,0.8,17
		c-0.2-4.6,0-16.3,0.3-19.4c0.3-3.1-0.5-4.4-0.5-5.5c0.1-1.1,1.7-6.1,1.7-6.1l-3.7-1.2c0.5,3.2,0.9,5.6,0.9,5.6
		S468.4,271.3,468.5,272.2z"/>
	<g>
		<g>
			<path class="st30" d="M466.9,274.6c-2.8,6.2-9.7,26.9-12.1,34.4c0,0-1.4-0.2-2-0.4c0-0.1,0.9-30.9,6.6-38
				C463,266.2,470,267.9,466.9,274.6z"/>
			<path class="st30" d="M472.8,245.9c0.7-9-2.6-15.9-7.7-13c-2.2,1.2-4.8,3.4-4.7,5.7c0.3,4.1-0.5,27.1-1,31.5
				c-1.3,9.9,6.8,7.1,7.6,4.4C469,267.5,472.4,250.7,472.8,245.9z"/>
		</g>
	</g>
	<g>
		<path class="st30" d="M470.2,188.7c0.1,0.5,0.3,0.9,0.6,1.2c0.4,0.4,0.8,0.6,1.4,0.7c1.4,0.2,2.9,0.1,5.1,0.6
			c3.6,0.7,7.4,1.5,9,1.7c0.9,0.1,2.8,0.5,3.9,0.1c0,0,0.1,0,0.1,0c0,0,0,0,0,0c0.3-0.2,0.3-0.8,0.3-1.3c0-0.6-0.2-1.2-0.2-1.4
			c-0.1-1.7-1.5-2.3-2.2-2.5c-0.2-0.1-8.4-2.3-10.9-2.9c-1.2-0.3-1.9,0-3.1,0.2c-0.8,0.2-1.6,0.4-2.3,0.8
			C470.9,186.6,470,187.5,470.2,188.7z"/>
		<path class="st30" d="M487.1,191.4c0.1,0.2,0.2,0.5,0.3,0.6c0.1,0.1,0.1,0.2,0.2,0.2c0.8,0.9,2.2,0.8,2.5,0.8h0
			c0.1,0,0.2-0.1,0.3-0.1c0,0,0.1,0,0.1,0c2.2-0.7,13.7-8.3,13.7-8.3l-0.1-0.2l-0.9-1.5c0,0-7.3,2.6-10.7,3.5
			c-1.5,0.4-2.9,0.7-4,1.3c-0.1,0.1-0.2,0.1-0.4,0.2C488.1,187.9,486.5,189.4,487.1,191.4z"/>
	</g>
	<path class="st37" d="M455.5,309c0,0,1.6,2.1,3.7,4c0.9,0.5,1.3,0.9,1.6,1.3c0.2,0.3,0.2,0.6-0.1,0.7c-0.5,0.1-1.9,0.3-2.9-0.1
		c-1.6-0.6-3.1-1.9-3.8-2.6c-0.4,0.6-0.8,1.2-0.8,1.2l-1.5-0.4c0,0-0.6-3,1.1-4.7"/>
	<path class="st30" d="M453,308.4l1.4-1.1l1.2-0.7c0,0-0.5,1.6,0.4,3l0,0c0.4,0.5,0.7,0.9,1.3,1.5c0,0,0,0.4-0.6,0.3
		c-0.4,0-1.3-0.4-1.9-1.4v0c0,0,0,0,0-0.1c0-0.1-0.1-0.1-0.1-0.2C454.4,309.3,453.8,308.6,453,308.4z"/>
	<path class="st34" d="M454.8,240.9c0.6,1.9,1.9,9.3,2.2,11.2c0.8,5,1.3,8.6,2.1,13.1c0,0,0.4,0,1.2,0.1c0.2,0,0.3,0,0.5,0
		c1.9,0.1,5.1,0.3,8.3,0.2h0c2.4,0,4.9-0.2,6.8-0.5c0.7-0.1,1.3-0.3,1.8-0.5c0,0,0.8-9.9-0.4-40.1c0,0-14-2.6-19.9-0.9h0
		c-0.2,0.1-0.4,0.1-0.6,0.2C456.8,223.8,452.2,232.2,454.8,240.9z"/>
	<path class="st43" d="M468.2,157c0,0,4.1-0.1,5,2.9s-0.7,5.6-0.7,5.6"/>
	<path class="st35" d="M454.8,240.9c0.6,1.9,1.9,9.3,2.2,11.2c0.8,5,1.3,8.6,2.1,13.1c0,0,0.4,0,1.2,0.1c-0.8-7.8-4.6-25.4-4.3-30.9
		c0.3-5.9,2.6-9.6,2.6-9.6l-1.2-1.1h0c-0.2,0.1-0.4,0.1-0.6,0.2C456.8,223.8,452.2,232.2,454.8,240.9z"/>
	<path class="st6" d="M477.5,224.5c-0.1,0.6-1,0.9-1,0.9s-1.7,0.5-4.2,0.9l-0.2,0c-3.9,0.6-9.6,0.8-14.4-1.5
		c-0.5-0.2-0.9-0.5-1.3-0.7c-1-0.6,3.4-7.5-0.3-23.4c-0.6-2.6-1.2-4.9-1.5-7c-0.4-2.9-0.3-5.5,1-7.6c0.2-0.4,1.2-2.2,1.5-2.5
		c2.4-2.5,7.3-4.2,12.5-3.1c1.1,0.2,2.1,0.8,2.7,1.2c0.8,0.5,1,2.8,2.2,4.8c1.4,2.2,1.5,17.1,1.9,27.6
		C476.7,219.9,477.6,224.3,477.5,224.5z"/>
	<path class="st31" d="M464.3,213.2c0,0-3.9-0.1-4.3,0.6c-0.4,0.6-1.3,7.4-1.5,8.6c-0.1,0.6-0.5,1.6-0.8,2.5
		c-0.5-0.2-0.9-0.5-1.3-0.7c-1-0.6,3.4-7.5-0.3-23.4c-0.6-2.6-1.2-4.9-1.5-7l2.2-2.6l3-1.3c0,0,0.8,1-0.9,7.7
		c-0.7,2.9-0.2,5.5,0.5,10.1s2.2,4.4,2.2,4.4L464.3,213.2z"/>
	<path class="st30" d="M457.9,167.7c0.1,5.2,3.6,8.4,3.6,8.4l0.6,4.6l2.9,2l2,1.4l1.1-2.5l0.2-3.1c0-0.7,0.5-1.3,1.2-1.5
		c0.8-0.2,1.8-0.6,2.8-1.8c0.1-0.1,0.1-0.1,0.2-0.2c0,0,0,0,0,0c1.9-2.7,2.6-13-3.9-15.9C462,156,457.8,162.5,457.9,167.7z"/>
	<path class="st33" d="M465.2,179.8l-0.2,2.9l2,1.4l1.1-2.5l0.2-3.1c0-0.7,0.5-1.3,1.2-1.5c0.8-0.2,1.8-0.6,2.8-1.8
		c0.1-0.1,0.1-0.1,0.2-0.2c-0.1,0.1-1.7,1-4.1,1.3C466.7,176.5,465.3,178,465.2,179.8z"/>
	<path class="st44" d="M469.1,265.5L469.1,265.5c2.5,0,4.9-0.2,6.8-0.5c-0.5-0.4-1.1-0.8-1.7-1.4c-2.3-2-3.7-14-4.1-12.5
		C469.7,252.6,469.1,265.5,469.1,265.5z"/>
	<path class="st43" d="M457.3,164.2c0,0-5.2-0.3-6.2-3.5s1.6-6.5,4.5-6c2.5,0.5,3.8,1.8,4.8,4.9"/>
	<path class="st30" d="M454.5,187.3c-0.5,0-0.9,0.1-1.2,0.4c-0.4,0.3-0.7,0.8-0.9,1.3c-0.5,1.4-0.6,2.9-1.5,5.2
		c-1.4,3.6-2.7,7.3-3.3,8.9c-0.3,0.9-1,2.8-0.9,4c0,0,0,0.1,0,0.1c0,0,0,0,0,0c0.1,0.3,0.6,0.5,1.2,0.5c0.6,0.1,1.2,0.1,1.4,0.1
		c1.6,0.2,2.5-1.1,2.8-1.7c0.1-0.2,3.7-8.2,4.7-10.6c0.5-1.2,0.4-1.9,0.4-3.2c0-0.9-0.1-1.7-0.4-2.5
		C456.3,188.4,455.6,187.3,454.5,187.3z"/>
	<path class="st30" d="M446.8,205.8c-0.1,0.2-0.2,0.5-0.2,0.7c0,0.1,0,0.2,0,0.3c0,1.2,1.1,2.2,1.3,2.4l0,0c0.1,0.1,0.2,0.1,0.3,0.2
		c0,0,0.1,0,0.1,0.1c2.1,1,15.4,3.6,15.4,3.6l0.1-0.3l0.3-1.8c0,0-7-3.3-10.1-5c-1.3-0.8-2.6-1.5-3.7-1.9c-0.1-0.1-0.3-0.1-0.4-0.1
		C449.9,203.9,447.7,203.9,446.8,205.8z"/>
	<path class="st6" d="M454.2,184.5c-2.3,1.9-3.7,6.5-4.1,10.2l6.6,2.2c0,0,5.5-8.8,2.1-12.1C457.5,183.4,456.1,182.9,454.2,184.5z"
		/>
	<path class="st6" d="M462.8,181.2c0,0,3.1,1.3,5.4-0.5c1.8-1.4,0.9,3.3,0.9,3.3l-1.9,0.9c0,0-2.6-1.1-2.7-1.2
		C464.5,183.6,462.8,181.2,462.8,181.2z"/>
	<g>
		<path class="st30" d="M505.5,183c0,0,0.7-1,0.7-1.6c0-0.6-0.1-0.9-0.1-1.1c0-0.2,0.1-1,0-1.1c-0.1-0.2-0.3-0.3-0.4-0.3
			c-0.1,0.1-0.1,1-0.2,1.3s-0.8,1.3-0.9,1.8C504.6,182.4,504.4,183.4,505.5,183z"/>
		<path class="st30" d="M504.7,181.9c0.4-0.6,1.1-1.7,1.3-2.3c0.3-0.6,1.9-2.1,2.1-2.2c0.2,0,0.3,0.2,0.2,0.4
			c0.2-0.2,0.4-0.3,0.6-0.3c0.1,0,0.2,0.4,0,0.7c0,0.1-0.1,0.1-0.1,0.2c0.1,0.1,0.1,0.4-0.1,0.8c-0.1,0.3-0.3,0.4-0.5,0.6
			c0,0.1,0,0.3-0.1,0.4c-0.1,0.2-0.5,1-0.7,1.3s0,1.9-2.1,2.8c-0.7,0.2-1.9,0.7-1.9,0.7l-0.6-2C502.7,183.1,504.3,182.4,504.7,181.9
			z"/>
		
			<linearGradient id="SVGID_4_" gradientUnits="userSpaceOnUse" x1="484.5588" y1="216.6912" x2="483.2848" y2="214.5159" gradientTransform="matrix(-0.973 -0.2309 0.2309 -0.973 926.4879 502.6915)">
			<stop  offset="0" style="stop-color:#F15A29"/>
			<stop  offset="1" style="stop-color:#F7941E;stop-opacity:3.080000e-02"/>
		</linearGradient>
		<path class="st45" d="M505.6,183.4c0,0,0.8-0.6,0.6-2c-0.1-0.6-0.1-0.9-0.1-1.1c0-0.2,0.1-1,0-1.1c-0.1-0.2-0.3-0.3-0.4-0.3
			c-0.1,0.1-0.1,1-0.2,1.3s-0.8,1.3-0.9,1.8C504.6,182.4,504.5,183.8,505.6,183.4z"/>
	</g>
	<path class="st46" d="M471.5,161.6c-0.5,0.8-1.6,1-2.7,1c-2.7-0.1-5,2.2-4.7,5.1c0,0.1,0,0.2,0,0.4c0.1,0.6,0.1,1.2,0.2,1.9
		c0,0,0,0,0,0.1c0,0.4,0,1.9-0.9,1c-1.1-1.1-0.9-4.9-2.5-3.6c-2,1.7,0.6,8.8,0.6,8.8c-4.3-0.4-5.8-4.9-5.8-9.7
		c0-4.8,5.9-14.3,14.2-8.8C470,157.6,472.8,159.4,471.5,161.6z"/>
	<path class="st6" d="M481,185.6c0,0,0,2.6-0.8,5.1c-0.1,0.4-0.2,0.7-0.4,1.1c0,0-3,0.1-6.4-1.3l-1-2l-1.2-2.3l-1.3-2.9
		c0,0-2.2-2.8-0.7-2.8c1.5,0.1,5,1.2,5,1.2S477.9,182.8,481,185.6z"/>
	<path class="st31" d="M480.2,190.7c-0.1,0.4-0.2,0.7-0.4,1.1c0,0-3,0.1-6.4-1.3l-1-2c0,0,0,0,0,0c1-0.7,2.2-0.6,3.1,0.2
		c0.2,0.2,0.5,0.4,0.7,0.6C477.2,190,479.2,190.5,480.2,190.7z"/>
	<polygon class="st6" points="454.9,184 459.6,181.7 460.5,184.9 457.1,186.3 	"/>
	<path class="st6" d="M473.5,186.7c0,0,2.6,3.5,3.4,5.8c0.8,2.3,0.1,4.5-0.8,8.3c-0.9,3.8-5.6-6.9-5.6-6.9v-4.2L473.5,186.7z"/>
	<g>
		<path class="st40" d="M463.2,167c0-0.1,0-0.2,0-0.2c0-0.6,2.8-4.1,8.4-3.8c0.6,0,1.1,0.4,1.4,1c0.5,1.1,1.2,2.6,1.2,4.1
			c0,0,0.3,0.4,0.1,0.7c-0.1,0.2-0.2,0.6-0.2,0.6c0,0.1-0.2,0.4-0.2,0.4s0-0.5-0.8-0.7c-1.1-0.2-3.2-0.3-5.6,1.3
			c-0.8,0.5-1.4,1.2-1.9,1.1c-0.3-0.1-0.7-0.7-1-1.2c-0.1-0.2-0.4-0.4-0.6-0.2c-1.4,0.8-4.3,2.8-5.6,4.7c0,0-1.5-0.7-1.6-2.4
			C456.8,172.3,459.1,168.2,463.2,167z"/>
		<path class="st41" d="M465.3,164.3c0.4-0.3,2.2-1.3,4.8-1.5c1.4-0.1,2.9,0.1,3.1,0.5c0,0,1,1.7,1.3,4.2c0.1,0.4-0.1,1.2-0.1,1.2
			c0-0.2,0-0.4-0.1-0.5c-0.1-0.1-0.2-0.1-0.2-0.1c-0.9-0.1-4.8-0.2-6.4,0.9c-1.8,1.2-1.6,1.2-1.8,1.1c-0.2-0.1-1.6-3.2-1.8-4
			C463.8,165.3,464.9,164.7,465.3,164.3z"/>
	</g>
	<path class="st30" d="M470.3,214.9c-0.1,0.1-0.3,0-0.4,0c0,0,0,0,0,0c0,0,0,0,0,0c-0.1-0.1-0.3-0.2-0.3-0.2s0,0.1-0.2,0.1
		c-0.1,0-0.3-0.1-0.4-0.1c0,0,0,0-0.1-0.1c0,0,0,0,0,0c-0.3-0.2-0.6-0.4-1-0.6c-1.8-0.1-4.2-0.9-4.2-0.9l-0.2-2.3c0,0,0.5,0.3,1,0.4
		c0.6,0.1,2.5-0.3,3.2,0C468.4,211.3,470.9,213.3,470.3,214.9z"/>
	<path class="st30" d="M465.6,211c0,0,0.2-0.1,0.6-0.2c0.4-0.1,1.6-0.2,1.9-0.2c0.3,0,0.7-0.1,0.8-0.1s0,0.4-0.1,0.4
		c-0.1,0-0.3,0.2-0.8,0.4C467.5,211.5,465.6,211,465.6,211z"/>
</g>
</svg>
